<?xml version="1.0" encoding="UTF-8"?>
<svg version="1.1" xmlns="http://www.w3.org/2000/svg" width="1080" height="1080">
<path d="M0 0 C356.4 0 712.8 0 1080 0 C1080 356.4 1080 712.8 1080 1080 C723.6 1080 367.2 1080 0 1080 C0 723.6 0 367.2 0 0 Z " fill="#D12229" transform="translate(0,0)"/>
<path d="M0 0 C6.95476815 0.00638776 13.90953848 0.00664316 20.86430906 0.00765187 C34.5419169 0.00978371 48.21951841 0.01627412 61.89712286 0.02595448 C75.09894548 0.03528775 88.30076631 0.04227648 101.50259161 0.0464623 C102.75770479 0.04686429 102.75770479 0.04686429 104.03817379 0.04727441 C110.59238924 0.04935663 117.14660472 0.05131257 123.70082021 0.05322897 C155.23777718 0.06248174 186.77471811 0.08263931 218.31167364 0.10139394 C218.31167364 43.33139394 218.31167364 86.56139394 218.31167364 131.10139394 C137.13167364 131.10139394 55.95167364 131.10139394 -27.68832636 131.10139394 C-27.68832636 159.48139394 -27.68832636 187.86139394 -27.68832636 217.10139394 C38.31167364 217.10139394 104.31167364 217.10139394 172.31167364 217.10139394 C172.31167364 260.66139394 172.31167364 304.22139394 172.31167364 349.10139394 C106.31167364 349.10139394 40.31167364 349.10139394 -27.68832636 349.10139394 C-27.68832636 378.80139394 -27.68832636 408.50139394 -27.68832636 439.10139394 C53.49167364 439.10139394 134.67167364 439.10139394 218.31167364 439.10139394 C218.31167364 482.33139394 218.31167364 525.56139394 218.31167364 570.10139394 C91.59167364 570.10139394 -35.12832636 570.10139394 -165.68832636 570.10139394 C-165.68832636 382.33139394 -165.68832636 194.56139394 -165.68832636 1.10139394 C-52.57442591 -0.05282954 -52.57442591 -0.05282954 0 0 Z " fill="#FEFEFE" transform="translate(710.6883263587952,236.89860606193542)"/>
<path d="M0 0 C42.24 0 84.48 0 128 0 C128.06620051 52.76588148 128.12156833 105.53172363 128.15319599 158.29763479 C128.15694788 164.53444215 128.16083087 170.77124942 128.16479492 177.00805664 C128.16558185 178.24963448 128.16636878 179.49121232 128.16717956 180.77041373 C128.1802151 200.84450505 128.2038587 220.91857045 128.23145839 240.99264642 C128.2595642 261.60756243 128.27618719 282.22246492 128.28226548 302.8373993 C128.2863712 315.54648248 128.29931452 328.25549241 128.3237494 340.96455304 C128.33967054 349.69280141 128.34438599 358.42101219 128.34050413 367.14927401 C128.33859247 372.17661226 128.34141525 377.20382296 128.35761642 382.23113823 C128.5013154 429.16015102 128.5013154 429.16015102 121.5 450.875 C121.15743164 451.95523437 120.81486328 453.03546875 120.46191406 454.1484375 C112.90026026 477.08121219 100.96567411 497.88721799 85 516 C84.14921875 516.97195313 83.2984375 517.94390625 82.421875 518.9453125 C58.30722484 546.09007577 28.12332091 563.32664999 -6 575 C-7.14984375 575.40089844 -8.2996875 575.80179688 -9.484375 576.21484375 C-24.00535946 581.00098912 -39.49730434 583.14792041 -54.7578125 583.16796875 C-55.6639328 583.17129715 -56.5700531 583.17462555 -57.50363159 583.17805481 C-59.41127012 583.18308705 -61.31891734 583.18546429 -63.2265625 583.18530273 C-66.09650757 583.1874784 -68.96606073 583.20564435 -71.8359375 583.22460938 C-86.29592673 583.2705454 -100.0202618 582.15978528 -114.0625 578.4375 C-115.51378296 578.05440674 -115.51378296 578.05440674 -116.99438477 577.66357422 C-147.03699436 569.37343987 -175.48310811 553.95860838 -198.1796875 532.6328125 C-200.67907397 530.29959023 -203.22622475 528.04809386 -205.8125 525.8125 C-221.77279311 511.62557279 -232.99604833 492.84525337 -242.13769531 473.78515625 C-242.8622631 472.28514503 -243.61185918 470.79725967 -244.3671875 469.3125 C-251.60756218 454.54781438 -255.73083439 438.21580654 -258 422 C-258.33 419.69 -258.66 417.38 -259 415 C-259 409.72 -259 404.44 -259 399 C-216.76 399 -174.52 399 -131 399 C-130.01 405.93 -130.01 405.93 -129 413 C-124.08823228 431.00981497 -113.32317997 443.5611736 -97.46875 453.0859375 C-87.10894339 458.80249745 -77.30514347 460.17915704 -65.625 460.1875 C-64.73039063 460.19974609 -63.83578125 460.21199219 -62.9140625 460.22460938 C-47.50866758 460.25819672 -33.82248813 454.84520789 -22 445 C-21.44570313 444.42507813 -20.89140625 443.85015625 -20.3203125 443.2578125 C-19 442 -19 442 -17 442 C-16.60748047 441.13568359 -16.60748047 441.13568359 -16.20703125 440.25390625 C-14.9250193 437.8599875 -13.43603288 436.01170197 -11.6875 433.9375 C-1.50557625 420.9979719 -0.70018065 407.11553834 -0.7215271 391.30819702 C-0.71651874 389.61664521 -0.71064137 387.9250958 -0.70397437 386.23354971 C-0.68822576 381.60428872 -0.68474652 376.97508852 -0.68332577 372.34580398 C-0.67962273 367.34659722 -0.66446274 362.34742346 -0.65071106 357.34823608 C-0.62846279 348.69308189 -0.61343488 340.03793948 -0.60334396 331.38276291 C-0.5887438 318.86891251 -0.5632032 306.35510313 -0.53501268 293.84127684 C-0.489569 273.53726184 -0.45294416 253.23324093 -0.421875 232.92919922 C-0.39167953 213.20848553 -0.35732467 193.4877863 -0.31738281 173.76708984 C-0.31492126 172.55102288 -0.31245972 171.33495592 -0.30992357 170.08203845 C-0.29754878 163.98124358 -0.28509228 157.88044888 -0.27259517 151.77965426 C-0.16906366 101.18645328 -0.08147487 50.59324226 0 0 Z " fill="#FEFEFE" transform="translate(351,229)"/>
<path d="M0 0 C10.13650361 3.76498706 18.55919396 10.83557341 26.99023438 17.43505859 C31.01368918 20.56799655 35.070295 23.65768433 39.125 26.75 C40.0229126 27.43545898 40.9208252 28.12091797 41.84594727 28.82714844 C47.78600346 33.349372 53.78193066 37.78704861 59.8125 42.1875 C66.00741151 46.71990417 72.09134921 51.36347264 78.0625 56.1875 C78.73579346 56.72850342 79.40908691 57.26950684 80.1027832 57.8269043 C80.71984131 58.33133057 81.33689941 58.83575684 81.97265625 59.35546875 C82.78101929 60.01518677 82.78101929 60.01518677 83.60571289 60.68823242 C85 62 85 62 87 65 C81.39588355 67.60709919 75.80999855 69.2288872 69.8125 70.6875 C68.47928711 71.02491211 68.47928711 71.02491211 67.11914062 71.36914062 C63.2284622 72.33084852 60.04488677 73 56 73 C56.31751221 73.50861572 56.63502441 74.01723145 56.9621582 74.54125977 C58.41731007 76.8785792 59.864935 79.22047491 61.3125 81.5625 C61.81201172 82.36236328 62.31152344 83.16222656 62.82617188 83.98632812 C69.73990454 95.20397385 69.73990454 95.20397385 70.25 100.6875 C68.42756535 104.05900411 65.84866156 104.89203133 62.421875 106.3984375 C59.48955175 107.12678876 57.85217428 106.98764611 55 106 C48.65331691 100.24045499 44.83014086 91.5322223 41 84 C38.2344647 85.2809665 36.03758847 86.66181063 33.7578125 88.6796875 C33.16613281 89.19660156 32.57445312 89.71351563 31.96484375 90.24609375 C31.05412109 91.05240234 31.05412109 91.05240234 30.125 91.875 C18.66970803 102 18.66970803 102 14 102 C9.94328498 87.02135993 8.00801154 71.60572393 6 56.25 C5.87026794 55.26797607 5.74053589 54.28595215 5.60687256 53.27416992 C-0.12549529 9.85468282 -0.12549529 9.85468282 0 0 Z " fill="#FDFDFC" transform="translate(212,481)"/>
</svg>
